Coordinates
version=1
nRows=12
nColumns=24
inDegrees=yes

Units are S.I. units (second, meters, Newtons, ...)
Angles are in degrees.

endheader
time	pelvis_tilt	pelvis_list	pelvis_rotation	pelvis_tx	pelvis_ty	pelvis_tz	hip_flexion_r	hip_adduction_r	hip_rotation_r	knee_angle_r	ankle_angle_r	subtalar_angle_r	mtp_angle_r	hip_flexion_l	hip_adduction_l	hip_rotation_l	knee_angle_l	ankle_angle_l	subtalar_angle_l	mtp_angle_l	lumbar_extension	lumbar_bending	lumbar_rotation
      1.58350000	      6.73180716	      3.49421272	     -4.50930750	      0.44527830	      1.07914860	      0.30795684	      6.11879887	     -6.12033749	     -1.98774194	    -62.88849558	     -5.00006900	    -12.48012287	      9.77832034	     -1.48245142	      9.49822679	     -2.79303380	     -4.88913028	     -0.81849477	     -2.03265037	      1.72936005	     -2.29269511	     -1.40329742	      1.12197025
      1.58766667	      6.74458540	      3.41484611	     -4.40656077	      0.45006307	      1.07975670	      0.30793795	      6.67689571	     -5.95135514	     -1.80433169	    -62.68688256	     -4.78842961	    -12.56441071	      9.74611402	     -1.91278762	      9.42213349	     -2.65551578	     -4.66184686	     -0.77322849	     -1.96816066	      1.72103164	     -2.37814240	     -1.35179856	      1.05865543
      1.59183333	      6.84113227	      3.37592294	     -4.26943199	      0.45481971	      1.08042673	      0.30771500	      7.12830213	     -5.85845595	     -1.68854772	    -62.48467502	     -3.98409984	    -12.84992520	      9.59212889	     -2.43555605	      9.41560026	     -2.45519317	     -4.43521556	     -0.55803170	     -1.89705854	      1.67549949	     -2.46507558	     -1.24124961	      0.82695495
      1.59600000	      6.90466883	      3.30507975	     -4.13870917	      0.45963054	      1.08105026	      0.30755645	      7.59565315	     -5.71650633	     -1.55154069	    -62.20992936	     -3.48570400	    -13.00443172	      9.44059060	     -2.93155056	      9.36267381	     -2.27936990	     -4.19995839	     -0.41999033	     -1.83048024	      1.62772201	     -2.55592644	     -1.16151705	      0.62230257
      1.60016667	      6.93549952	      3.26075358	     -4.04983107	      0.46439668	      1.08156347	      0.30742494	      8.11293386	     -5.59886773	     -1.36446712	    -61.91125780	     -3.12325310	    -13.14439518	      9.34544088	     -3.39234962	      9.34180013	     -2.09040028	     -3.94429801	     -0.32988894	     -1.75388860	      1.59762328	     -2.61921312	     -1.07536007	      0.48985814
      1.60433333	      6.97630080	      3.19646819	     -3.88602849	      0.46914884	      1.08208760	      0.30729026	      8.58113254	     -5.45563398	     -1.26107665	    -61.55589109	     -2.58494619	    -13.33771061	      9.19597180	     -3.85202789	      9.28021223	     -1.93273756	     -3.72694767	     -0.17701137	     -1.72761798	      1.54723468	     -2.69477074	     -1.01682845	      0.30625537
      1.60850000	      6.99874722	      3.16094527	     -3.80864922	      0.47386808	      1.08251767	      0.30722117	      9.09325841	     -5.33812866	     -1.06260991	    -61.17651855	     -2.27450967	    -13.46445225	      9.11821647	     -4.30520671	      9.26136157	     -1.74369568	     -3.45207810	     -0.10233402	     -1.65592941	      1.52138283	     -2.74452310	     -0.94442793	      0.19821701
      1.61266667	      6.99035757	      3.09385464	     -3.67283693	      0.47860161	      1.08291038	      0.30718674	      9.59983215	     -5.17284289	     -0.89885787	    -60.72161726	     -2.01109741	    -13.57477373	      9.07574667	     -4.70800203	      9.18512852	     -1.63200999	     -3.24239827	     -0.03577864	     -1.62525487	      1.50723909	     -2.81308748	     -0.91224052	      0.13245094
      1.61683333	      7.04222337	      3.07233835	     -3.57841753	      0.48336205	      1.08329995	      0.30697190	     10.04923945	     -5.09155095	     -0.75690048	    -60.28743169	     -1.44535191	    -13.83744130	      8.98074767	     -5.20556742	      9.19324284	     -1.40324038	     -2.94399394	      0.11876138	     -1.57470160	      1.47485370	     -2.80998734	     -0.79475787	     -0.01413548
      1.62100000	      7.04314667	      3.03316356	     -3.44965808	      0.48809819	      1.08361530	      0.30688362	     10.52912372	     -4.96749473	     -0.61459406	    -59.78211210	     -1.04726648	    -14.01782365	      8.88982536	     -5.63130736	      9.15415191	     -1.21984180	     -2.69504184	      0.23355151	     -1.54813010	      1.44216104	     -2.86150813	     -0.74535109	     -0.14548878
      1.62516667	      7.04577268	      2.99957666	     -3.32255680	      0.49282627	      1.08388911	      0.30676644	     10.99675047	     -4.85580389	     -0.47996469	    -59.23794909	     -0.66902838	    -14.20090054	      8.79260954	     -6.05980479	      9.12244454	     -1.04065799	     -2.43792687	      0.34300046	     -1.52792273	      1.40623556	     -2.88407075	     -0.69723363	     -0.27935561
      1.62933333	      7.04597684	      2.97888914	     -3.20552181	      0.49753606	      1.08410665	      0.30667202	     11.46212135	     -4.75564609	     -0.33699210	    -58.66619457	     -0.31572451	    -14.38962349	      8.69357931	     -6.48380213	      9.10296815	     -0.86033332	     -2.18051743	      0.44809161	     -1.51326404	      1.36895446	     -2.91107122	     -0.66208964	     -0.40908668
